<mxfile host="app.diagrams.net" agent="Mozilla/5.0 (Windows NT 10.0; Win64; x64) AppleWebKit/537.36 (KHTML, like Gecko) Chrome/129.0.0.0 Safari/537.36" version="24.7.17">
  <diagram id="gSUifAEMoZ3t9gNiX3Kw" name="Página-1">
    <mxGraphModel dx="593" dy="684" grid="0" gridSize="10" guides="1" tooltips="1" connect="1" arrows="1" fold="1" page="1" pageScale="1" pageWidth="827" pageHeight="1169" math="0" shadow="0">
      <root>
        <mxCell id="0" />
        <mxCell id="1" parent="0" />
        <mxCell id="6bPKhn_VX4hAf24u_3Ot-1" style="edgeStyle=orthogonalEdgeStyle;rounded=0;orthogonalLoop=1;jettySize=auto;html=1;endArrow=none;endFill=0;dashed=1;" parent="1" target="6bPKhn_VX4hAf24u_3Ot-26" edge="1">
          <mxGeometry relative="1" as="geometry">
            <mxPoint x="463.5" y="442" as="sourcePoint" />
          </mxGeometry>
        </mxCell>
        <mxCell id="6bPKhn_VX4hAf24u_3Ot-2" value="NomeUsuario:usuario" style="shape=umlActor;verticalLabelPosition=bottom;verticalAlign=top;html=1;outlineConnect=0;" parent="1" vertex="1">
          <mxGeometry x="448.5" y="358" width="30" height="60" as="geometry" />
        </mxCell>
        <mxCell id="6bPKhn_VX4hAf24u_3Ot-3" style="edgeStyle=orthogonalEdgeStyle;rounded=0;orthogonalLoop=1;jettySize=auto;html=1;endArrow=none;endFill=0;dashed=1;" parent="1" target="6bPKhn_VX4hAf24u_3Ot-5" edge="1">
          <mxGeometry relative="1" as="geometry">
            <mxPoint x="780" y="445" as="sourcePoint" />
            <Array as="points">
              <mxPoint x="778" y="443" />
              <mxPoint x="778" y="442" />
              <mxPoint x="780" y="442" />
            </Array>
          </mxGeometry>
        </mxCell>
        <mxCell id="6bPKhn_VX4hAf24u_3Ot-4" style="edgeStyle=orthogonalEdgeStyle;rounded=0;orthogonalLoop=1;jettySize=auto;html=1;" parent="1" edge="1">
          <mxGeometry relative="1" as="geometry">
            <mxPoint x="1037.298620689655" y="820.5" as="targetPoint" />
            <mxPoint x="784.9998554797271" y="735" as="sourcePoint" />
            <Array as="points">
              <mxPoint x="784.54" y="820.75" />
            </Array>
          </mxGeometry>
        </mxCell>
        <mxCell id="6bPKhn_VX4hAf24u_3Ot-5" value="" style="rounded=1;whiteSpace=wrap;html=1;rotation=90;" parent="1" vertex="1">
          <mxGeometry x="629.25" y="665.75" width="300.5" height="39.5" as="geometry" />
        </mxCell>
        <mxCell id="6bPKhn_VX4hAf24u_3Ot-6" value="Seleciona a opção de Logar e preenche seus dados cadastrados" style="text;html=1;align=center;verticalAlign=middle;whiteSpace=wrap;rounded=0;" parent="1" vertex="1">
          <mxGeometry x="491" y="531" width="266" height="30" as="geometry" />
        </mxCell>
        <mxCell id="6bPKhn_VX4hAf24u_3Ot-7" value="&lt;div&gt;&amp;lt;&amp;lt;Cadastro&amp;gt;&amp;gt;&lt;/div&gt;VerificarCadastro:Cadastro" style="rounded=1;whiteSpace=wrap;html=1;" parent="1" vertex="1">
          <mxGeometry x="701" y="381" width="157" height="60" as="geometry" />
        </mxCell>
        <mxCell id="6bPKhn_VX4hAf24u_3Ot-8" value="Valida as informações preenchidas e loga o usuário em sua conta" style="text;html=1;align=center;verticalAlign=middle;whiteSpace=wrap;rounded=0;" parent="1" vertex="1">
          <mxGeometry x="806" y="779" width="202" height="30" as="geometry" />
        </mxCell>
        <mxCell id="6bPKhn_VX4hAf24u_3Ot-9" value="" style="endArrow=none;dashed=1;html=1;rounded=0;entryX=0.995;entryY=0.532;entryDx=0;entryDy=0;entryPerimeter=0;exitX=-0.002;exitY=0.685;exitDx=0;exitDy=0;exitPerimeter=0;" parent="1" source="6bPKhn_VX4hAf24u_3Ot-30" edge="1">
          <mxGeometry width="50" height="50" relative="1" as="geometry">
            <mxPoint x="582.9300000000001" y="776.724" as="sourcePoint" />
            <mxPoint x="1118.325" y="776.724" as="targetPoint" />
          </mxGeometry>
        </mxCell>
        <mxCell id="6bPKhn_VX4hAf24u_3Ot-10" value="" style="edgeStyle=orthogonalEdgeStyle;rounded=0;orthogonalLoop=1;jettySize=auto;html=1;endArrow=none;endFill=0;" parent="1" edge="1">
          <mxGeometry relative="1" as="geometry">
            <mxPoint x="862" y="747" as="sourcePoint" />
            <mxPoint x="862" y="769" as="targetPoint" />
          </mxGeometry>
        </mxCell>
        <mxCell id="6bPKhn_VX4hAf24u_3Ot-11" value="throw new Exception(&quot;Login ou senha incorretos&quot;)" style="text;whiteSpace=wrap;html=1;" parent="1" vertex="1">
          <mxGeometry x="798" y="697" width="134" height="36" as="geometry" />
        </mxCell>
        <mxCell id="6bPKhn_VX4hAf24u_3Ot-12" value="" style="endArrow=classic;html=1;rounded=0;" parent="1" edge="1">
          <mxGeometry width="50" height="50" relative="1" as="geometry">
            <mxPoint x="484" y="567" as="sourcePoint" />
            <mxPoint x="759" y="567" as="targetPoint" />
          </mxGeometry>
        </mxCell>
        <mxCell id="6bPKhn_VX4hAf24u_3Ot-13" value="" style="endArrow=classic;html=1;rounded=0;entryX=0.944;entryY=0.001;entryDx=0;entryDy=0;entryPerimeter=0;" parent="1" edge="1">
          <mxGeometry width="50" height="50" relative="1" as="geometry">
            <mxPoint x="862.79" y="769" as="sourcePoint" />
            <mxPoint x="799.0004999999999" y="769.45" as="targetPoint" />
          </mxGeometry>
        </mxCell>
        <mxCell id="6bPKhn_VX4hAf24u_3Ot-14" value="" style="shape=umlDestroy;whiteSpace=wrap;html=1;strokeWidth=3;targetShapes=umlLifeline;" parent="1" vertex="1">
          <mxGeometry x="764.5" y="873.44" width="30" height="30" as="geometry" />
        </mxCell>
        <mxCell id="6bPKhn_VX4hAf24u_3Ot-15" value="Redireciona o usuário logado para a página inicial" style="text;html=1;align=center;verticalAlign=middle;whiteSpace=wrap;rounded=0;" parent="1" vertex="1">
          <mxGeometry x="657" y="833.5" width="356" height="30" as="geometry" />
        </mxCell>
        <mxCell id="6bPKhn_VX4hAf24u_3Ot-16" value="" style="shape=umlDestroy;whiteSpace=wrap;html=1;strokeWidth=3;targetShapes=umlLifeline;" parent="1" vertex="1">
          <mxGeometry x="443" y="1736" width="30" height="30" as="geometry" />
        </mxCell>
        <mxCell id="6bPKhn_VX4hAf24u_3Ot-17" value="" style="shape=umlDestroy;whiteSpace=wrap;html=1;strokeWidth=3;targetShapes=umlLifeline;" parent="1" vertex="1">
          <mxGeometry x="1040.49" y="876" width="30" height="30" as="geometry" />
        </mxCell>
        <mxCell id="6bPKhn_VX4hAf24u_3Ot-18" value="UC-10 : Envio de ordem de Venda (OV)" style="text;html=1;align=center;verticalAlign=middle;whiteSpace=wrap;rounded=0;" parent="1" vertex="1">
          <mxGeometry x="683" y="313" width="304" height="30" as="geometry" />
        </mxCell>
        <mxCell id="6bPKhn_VX4hAf24u_3Ot-19" value="[if (lnfPreenchidas != infCadastradas)]" style="text;html=1;align=center;verticalAlign=middle;resizable=0;points=[];autosize=1;strokeColor=none;fillColor=none;" parent="1" vertex="1">
          <mxGeometry x="575.5" y="728" width="219" height="26" as="geometry" />
        </mxCell>
        <mxCell id="6bPKhn_VX4hAf24u_3Ot-20" value="[if (!usuarioExiste())]" style="text;whiteSpace=wrap;html=1;" parent="1" vertex="1">
          <mxGeometry x="584" y="632" width="229" height="36" as="geometry" />
        </mxCell>
        <mxCell id="6bPKhn_VX4hAf24u_3Ot-21" value="throw new Exception(&quot;Usuário não cadastrado&quot;)" style="text;whiteSpace=wrap;html=1;" parent="1" vertex="1">
          <mxGeometry x="801" y="629.5" width="212" height="36" as="geometry" />
        </mxCell>
        <mxCell id="6bPKhn_VX4hAf24u_3Ot-22" value="" style="edgeStyle=orthogonalEdgeStyle;rounded=0;orthogonalLoop=1;jettySize=auto;html=1;endArrow=none;endFill=0;" parent="1" edge="1">
          <mxGeometry relative="1" as="geometry">
            <mxPoint x="886" y="670" as="sourcePoint" />
            <mxPoint x="886" y="692" as="targetPoint" />
          </mxGeometry>
        </mxCell>
        <mxCell id="6bPKhn_VX4hAf24u_3Ot-23" value="" style="endArrow=classic;html=1;rounded=0;entryX=0.522;entryY=-0.037;entryDx=0;entryDy=0;entryPerimeter=0;" parent="1" target="6bPKhn_VX4hAf24u_3Ot-5" edge="1">
          <mxGeometry width="50" height="50" relative="1" as="geometry">
            <mxPoint x="885.79" y="692.31" as="sourcePoint" />
            <mxPoint x="822.0004999999999" y="692.76" as="targetPoint" />
          </mxGeometry>
        </mxCell>
        <mxCell id="6bPKhn_VX4hAf24u_3Ot-24" value="[else]" style="text;whiteSpace=wrap;html=1;" parent="1" vertex="1">
          <mxGeometry x="582" y="776" width="229" height="36" as="geometry" />
        </mxCell>
        <mxCell id="6bPKhn_VX4hAf24u_3Ot-25" value="" style="rounded=1;whiteSpace=wrap;html=1;rotation=90;" parent="1" vertex="1">
          <mxGeometry x="891.02" y="682.98" width="328.95" height="39.5" as="geometry" />
        </mxCell>
        <mxCell id="6bPKhn_VX4hAf24u_3Ot-26" value="" style="rounded=1;whiteSpace=wrap;html=1;rotation=90;" parent="1" vertex="1">
          <mxGeometry x="-107.77" y="1089.77" width="1142.52" height="39.5" as="geometry" />
        </mxCell>
        <mxCell id="6bPKhn_VX4hAf24u_3Ot-27" value="" style="endArrow=classic;html=1;rounded=0;entryX=0.952;entryY=-0.076;entryDx=0;entryDy=0;entryPerimeter=0;" parent="1" edge="1">
          <mxGeometry width="50" height="50" relative="1" as="geometry">
            <mxPoint x="1034" y="859" as="sourcePoint" />
            <mxPoint x="486.25199999999995" y="857.6019999999999" as="targetPoint" />
          </mxGeometry>
        </mxCell>
        <mxCell id="6bPKhn_VX4hAf24u_3Ot-28" value="&lt;div&gt;&amp;lt;&amp;lt;Login&amp;gt;&amp;gt;&lt;/div&gt;ValidarLogin:Login" style="rounded=1;whiteSpace=wrap;html=1;" parent="1" vertex="1">
          <mxGeometry x="991" y="381" width="157" height="60" as="geometry" />
        </mxCell>
        <mxCell id="6bPKhn_VX4hAf24u_3Ot-29" style="edgeStyle=orthogonalEdgeStyle;rounded=0;orthogonalLoop=1;jettySize=auto;html=1;entryX=0.411;entryY=0.978;entryDx=0;entryDy=0;entryPerimeter=0;endArrow=none;endFill=0;dashed=1;" parent="1" source="6bPKhn_VX4hAf24u_3Ot-25" target="6bPKhn_VX4hAf24u_3Ot-28" edge="1">
          <mxGeometry relative="1" as="geometry" />
        </mxCell>
        <mxCell id="6bPKhn_VX4hAf24u_3Ot-30" value="Verificar Cadastro" style="shape=umlFrame;whiteSpace=wrap;html=1;pointerEvents=0;width=105;height=30;" parent="1" vertex="1">
          <mxGeometry x="403" y="578.5" width="711" height="290" as="geometry" />
        </mxCell>
        <mxCell id="6bPKhn_VX4hAf24u_3Ot-31" value="" style="rounded=1;whiteSpace=wrap;html=1;rotation=90;" parent="1" vertex="1">
          <mxGeometry x="960.06" y="1097.88" width="1148" height="39.5" as="geometry" />
        </mxCell>
        <mxCell id="6bPKhn_VX4hAf24u_3Ot-32" style="edgeStyle=orthogonalEdgeStyle;rounded=0;orthogonalLoop=1;jettySize=auto;html=1;endArrow=none;endFill=0;dashed=1;" parent="1" edge="1">
          <mxGeometry relative="1" as="geometry">
            <mxPoint x="1532" y="447" as="sourcePoint" />
            <mxPoint x="1532.5" y="543" as="targetPoint" />
          </mxGeometry>
        </mxCell>
        <mxCell id="6bPKhn_VX4hAf24u_3Ot-33" value="" style="endArrow=classic;html=1;rounded=0;" parent="1" edge="1">
          <mxGeometry width="50" height="50" relative="1" as="geometry">
            <mxPoint x="486" y="982" as="sourcePoint" />
            <mxPoint x="1254" y="979" as="targetPoint" />
          </mxGeometry>
        </mxCell>
        <mxCell id="6bPKhn_VX4hAf24u_3Ot-35" style="edgeStyle=orthogonalEdgeStyle;rounded=0;orthogonalLoop=1;jettySize=auto;html=1;entryX=0.411;entryY=0.978;entryDx=0;entryDy=0;entryPerimeter=0;endArrow=none;endFill=0;dashed=1;" parent="1" edge="1">
          <mxGeometry relative="1" as="geometry">
            <mxPoint x="1054.49" y="893" as="sourcePoint" />
            <mxPoint x="1056.49" y="857" as="targetPoint" />
            <Array as="points">
              <mxPoint x="1056.49" y="893" />
            </Array>
          </mxGeometry>
        </mxCell>
        <mxCell id="6bPKhn_VX4hAf24u_3Ot-36" style="edgeStyle=orthogonalEdgeStyle;rounded=0;orthogonalLoop=1;jettySize=auto;html=1;entryX=0.411;entryY=0.978;entryDx=0;entryDy=0;entryPerimeter=0;endArrow=none;endFill=0;dashed=1;exitX=0.402;exitY=0.398;exitDx=0;exitDy=0;exitPerimeter=0;" parent="1" source="6bPKhn_VX4hAf24u_3Ot-14" edge="1">
          <mxGeometry relative="1" as="geometry">
            <mxPoint x="775" y="866.5" as="sourcePoint" />
            <mxPoint x="777" y="830.5" as="targetPoint" />
            <Array as="points">
              <mxPoint x="775" y="885" />
              <mxPoint x="775" y="890" />
              <mxPoint x="777" y="890" />
            </Array>
          </mxGeometry>
        </mxCell>
        <mxCell id="6bPKhn_VX4hAf24u_3Ot-38" value="" style="shape=umlDestroy;whiteSpace=wrap;html=1;strokeWidth=3;targetShapes=umlLifeline;" parent="1" vertex="1">
          <mxGeometry x="1519.06" y="1764" width="30" height="30" as="geometry" />
        </mxCell>
        <mxCell id="6bPKhn_VX4hAf24u_3Ot-39" style="edgeStyle=orthogonalEdgeStyle;rounded=0;orthogonalLoop=1;jettySize=auto;html=1;entryX=0.411;entryY=0.978;entryDx=0;entryDy=0;entryPerimeter=0;endArrow=none;endFill=0;dashed=1;exitX=0.402;exitY=0.398;exitDx=0;exitDy=0;exitPerimeter=0;" parent="1" edge="1">
          <mxGeometry relative="1" as="geometry">
            <mxPoint x="460.03999999999996" y="1735.5" as="sourcePoint" />
            <mxPoint x="460.03999999999996" y="1681" as="targetPoint" />
            <Array as="points">
              <mxPoint x="460.6" y="1742" />
              <mxPoint x="460.6" y="1742" />
            </Array>
          </mxGeometry>
        </mxCell>
        <mxCell id="6bPKhn_VX4hAf24u_3Ot-40" style="edgeStyle=orthogonalEdgeStyle;rounded=0;orthogonalLoop=1;jettySize=auto;html=1;entryX=0.411;entryY=0.978;entryDx=0;entryDy=0;entryPerimeter=0;endArrow=none;endFill=0;dashed=1;exitX=0.402;exitY=0.398;exitDx=0;exitDy=0;exitPerimeter=0;" parent="1" edge="1">
          <mxGeometry relative="1" as="geometry">
            <mxPoint x="1277.61" y="1744.5" as="sourcePoint" />
            <mxPoint x="1277.61" y="1690" as="targetPoint" />
            <Array as="points">
              <mxPoint x="1278.1699999999998" y="1760" />
              <mxPoint x="1278.1699999999998" y="1760" />
            </Array>
          </mxGeometry>
        </mxCell>
        <mxCell id="6bPKhn_VX4hAf24u_3Ot-41" value="&lt;div&gt;&amp;lt;&amp;lt;B3&amp;gt;&amp;gt;&lt;/div&gt;VerificarSaldo:B3" style="rounded=1;whiteSpace=wrap;html=1;" parent="1" vertex="1">
          <mxGeometry x="1461" y="374" width="157" height="60" as="geometry" />
        </mxCell>
        <mxCell id="6bPKhn_VX4hAf24u_3Ot-42" value="O usuário seleciona a opção de áreas de ações e seleciona a ação que deseja vender" style="text;html=1;align=center;verticalAlign=middle;whiteSpace=wrap;rounded=0;" parent="1" vertex="1">
          <mxGeometry x="493" y="952" width="750" height="30" as="geometry" />
        </mxCell>
        <mxCell id="6bPKhn_VX4hAf24u_3Ot-43" value="O usuário escolhe o método de pagamento que deseja realizar a venda dessa ação" style="text;html=1;align=center;verticalAlign=middle;whiteSpace=wrap;rounded=0;" parent="1" vertex="1">
          <mxGeometry x="498" y="1307" width="750" height="30" as="geometry" />
        </mxCell>
        <mxCell id="6bPKhn_VX4hAf24u_3Ot-53" value="" style="endArrow=classic;html=1;rounded=0;entryX=0.847;entryY=0.994;entryDx=0;entryDy=0;entryPerimeter=0;" parent="1" edge="1">
          <mxGeometry width="50" height="50" relative="1" as="geometry">
            <mxPoint x="488" y="1417" as="sourcePoint" />
            <mxPoint x="1257.9920000000002" y="1420.3137500000003" as="targetPoint" />
          </mxGeometry>
        </mxCell>
        <mxCell id="6bPKhn_VX4hAf24u_3Ot-54" value="Confirmar ordem de venda" style="text;html=1;align=center;verticalAlign=middle;whiteSpace=wrap;rounded=0;" parent="1" vertex="1">
          <mxGeometry x="598.5" y="1393" width="539" height="30" as="geometry" />
        </mxCell>
        <mxCell id="6bPKhn_VX4hAf24u_3Ot-55" value="" style="endArrow=classic;html=1;rounded=0;" parent="1" edge="1">
          <mxGeometry width="50" height="50" relative="1" as="geometry">
            <mxPoint x="1247.88" y="1544.4" as="sourcePoint" />
            <mxPoint x="482.13" y="1544" as="targetPoint" />
          </mxGeometry>
        </mxCell>
        <mxCell id="6bPKhn_VX4hAf24u_3Ot-56" value="Ordem de venda enviada para a B3, venda de ação para o cliente efetuada e carteira de ações atualizada" style="text;html=1;align=center;verticalAlign=middle;whiteSpace=wrap;rounded=0;" parent="1" vertex="1">
          <mxGeometry x="496" y="1488" width="817" height="30" as="geometry" />
        </mxCell>
        <mxCell id="6bPKhn_VX4hAf24u_3Ot-57" value="" style="endArrow=classic;html=1;rounded=0;exitX=0.991;exitY=0.907;exitDx=0;exitDy=0;exitPerimeter=0;" parent="1" edge="1">
          <mxGeometry width="50" height="50" relative="1" as="geometry">
            <mxPoint x="1261.9935000000003" y="1648.7640000000001" as="sourcePoint" />
            <mxPoint x="484.01" y="1648" as="targetPoint" />
          </mxGeometry>
        </mxCell>
        <mxCell id="6bPKhn_VX4hAf24u_3Ot-58" value="Mensagem ao cliente sobre ação vendida" style="text;html=1;align=center;verticalAlign=middle;whiteSpace=wrap;rounded=0;" parent="1" vertex="1">
          <mxGeometry x="523" y="1608" width="725" height="30" as="geometry" />
        </mxCell>
        <mxCell id="6bPKhn_VX4hAf24u_3Ot-59" value="Venda de ações por valor financeiro" style="shape=umlFrame;whiteSpace=wrap;html=1;pointerEvents=0;width=166;height=29;" parent="1" vertex="1">
          <mxGeometry x="388" y="1027" width="1011" height="143" as="geometry" />
        </mxCell>
        <mxCell id="6bPKhn_VX4hAf24u_3Ot-60" value="" style="endArrow=classic;html=1;rounded=0;" parent="1" edge="1">
          <mxGeometry width="50" height="50" relative="1" as="geometry">
            <mxPoint x="485.51" y="1085.5" as="sourcePoint" />
            <mxPoint x="1253.51" y="1082.5" as="targetPoint" />
          </mxGeometry>
        </mxCell>
        <mxCell id="6bPKhn_VX4hAf24u_3Ot-61" value="Comprar ações por valor financeiro informando o quando que deseja comprar" style="text;html=1;align=center;verticalAlign=middle;whiteSpace=wrap;rounded=0;" parent="1" vertex="1">
          <mxGeometry x="506" y="1051" width="750" height="30" as="geometry" />
        </mxCell>
        <mxCell id="6bPKhn_VX4hAf24u_3Ot-62" value="" style="endArrow=classic;html=1;rounded=0;entryX=0.895;entryY=0.997;entryDx=0;entryDy=0;entryPerimeter=0;" parent="1" edge="1">
          <mxGeometry width="50" height="50" relative="1" as="geometry">
            <mxPoint x="483.56" y="1343" as="sourcePoint" />
            <mxPoint x="1252.4385000000002" y="1343.9474" as="targetPoint" />
          </mxGeometry>
        </mxCell>
        <mxCell id="6bPKhn_VX4hAf24u_3Ot-63" value="VerificaçãodeQuantidadedeAções()" style="text;html=1;align=center;verticalAlign=middle;resizable=0;points=[];autosize=1;strokeColor=none;fillColor=none;" parent="1" vertex="1">
          <mxGeometry x="758.75" y="1130.52" width="207" height="26" as="geometry" />
        </mxCell>
        <mxCell id="6bPKhn_VX4hAf24u_3Ot-64" value="" style="rounded=1;whiteSpace=wrap;html=1;rotation=90;" parent="1" vertex="1">
          <mxGeometry x="704.59" y="1093.41" width="1148.94" height="39.5" as="geometry" />
        </mxCell>
        <mxCell id="6bPKhn_VX4hAf24u_3Ot-65" value="Sistema" style="shape=umlActor;verticalLabelPosition=bottom;verticalAlign=top;html=1;outlineConnect=0;" parent="1" vertex="1">
          <mxGeometry x="1267" y="366" width="30" height="60" as="geometry" />
        </mxCell>
        <mxCell id="6bPKhn_VX4hAf24u_3Ot-66" style="edgeStyle=orthogonalEdgeStyle;rounded=0;orthogonalLoop=1;jettySize=auto;html=1;endArrow=none;endFill=0;dashed=1;" parent="1" edge="1">
          <mxGeometry relative="1" as="geometry">
            <mxPoint x="1274" y="447" as="sourcePoint" />
            <mxPoint x="1274.5" y="543" as="targetPoint" />
          </mxGeometry>
        </mxCell>
        <mxCell id="6bPKhn_VX4hAf24u_3Ot-67" value="Envia a ordem de venda a B3" style="text;html=1;align=center;verticalAlign=middle;whiteSpace=wrap;rounded=0;" parent="1" vertex="1">
          <mxGeometry x="1292" y="1388" width="221" height="30" as="geometry" />
        </mxCell>
        <mxCell id="6bPKhn_VX4hAf24u_3Ot-68" value="" style="endArrow=classic;html=1;rounded=0;entryX=0.925;entryY=1.084;entryDx=0;entryDy=0;entryPerimeter=0;" parent="1" edge="1">
          <mxGeometry width="50" height="50" relative="1" as="geometry">
            <mxPoint x="1301.5" y="1433.56" as="sourcePoint" />
            <mxPoint x="1513.4920000000002" y="1432.0009999999997" as="targetPoint" />
          </mxGeometry>
        </mxCell>
        <mxCell id="6bPKhn_VX4hAf24u_3Ot-69" value="" style="endArrow=classic;html=1;rounded=0;entryX=0.977;entryY=1.033;entryDx=0;entryDy=0;entryPerimeter=0;" parent="1" edge="1">
          <mxGeometry width="50" height="50" relative="1" as="geometry">
            <mxPoint x="1513" y="1622.5" as="sourcePoint" />
            <mxPoint x="1300.2089999999998" y="1623.4899999999998" as="targetPoint" />
          </mxGeometry>
        </mxCell>
        <mxCell id="6bPKhn_VX4hAf24u_3Ot-70" value="Venda Efetuada" style="text;html=1;align=center;verticalAlign=middle;whiteSpace=wrap;rounded=0;" parent="1" vertex="1">
          <mxGeometry x="1313" y="1583" width="185" height="30" as="geometry" />
        </mxCell>
        <mxCell id="6bPKhn_VX4hAf24u_3Ot-71" style="edgeStyle=orthogonalEdgeStyle;rounded=0;orthogonalLoop=1;jettySize=auto;html=1;entryX=0.411;entryY=0.978;entryDx=0;entryDy=0;entryPerimeter=0;endArrow=none;endFill=0;dashed=1;exitX=0.402;exitY=0.398;exitDx=0;exitDy=0;exitPerimeter=0;" parent="1" edge="1">
          <mxGeometry relative="1" as="geometry">
            <mxPoint x="1530.56" y="1749" as="sourcePoint" />
            <mxPoint x="1530.56" y="1694.5" as="targetPoint" />
            <Array as="points">
              <mxPoint x="1531.12" y="1764.5" />
              <mxPoint x="1531.12" y="1764.5" />
            </Array>
          </mxGeometry>
        </mxCell>
        <mxCell id="6bPKhn_VX4hAf24u_3Ot-72" value="" style="shape=umlDestroy;whiteSpace=wrap;html=1;strokeWidth=3;targetShapes=umlLifeline;" parent="1" vertex="1">
          <mxGeometry x="1264.06" y="1764" width="30" height="30" as="geometry" />
        </mxCell>
      </root>
    </mxGraphModel>
  </diagram>
</mxfile>
